<svg xmlns="http://www.w3.org/2000/svg" width="166" height="167.072" viewBox="0 0 166 167.072"><defs><style>.a{fill:#ddebfd;}.b{fill:#bed9fd;}.c{fill:#f5d800;}.c,.d,.e,.f{isolation:isolate;}.d{fill:#e2c205;}.e{fill:#39927e;}.f{fill:#34846f;}.g{fill:#fccd7f;}.h{fill:#edba70;}.i{fill:none;}</style></defs><g transform="translate(-447 -1828)"><g transform="translate(462.305 1838)"><path class="a" d="M1164.458,312.762V435.852a3.794,3.794,0,0,0,3.793,3.792h86.519a3.794,3.794,0,0,0,3.792-3.792V312.762a3.792,3.792,0,0,0-3.792-3.792h-86.519a3.793,3.793,0,0,0-3.793,3.792Zm0,0" transform="translate(-1161.911 -285.118)"/><path class="b" d="M1254.77,618.8h-86.519a3.794,3.794,0,0,1-3.793-3.792v8.006a3.794,3.794,0,0,0,3.793,3.792h86.519a3.794,3.794,0,0,0,3.792-3.792v-8.006a3.793,3.793,0,0,1-3.792,3.792Zm0,0" transform="translate(-1161.911 -472.285)"/><path class="b" d="M1382.825,308.97h-8.98a3.793,3.793,0,0,1,3.793,3.792V435.852a3.794,3.794,0,0,1-3.793,3.792h8.98a3.794,3.794,0,0,0,3.792-3.792V312.762a3.792,3.792,0,0,0-3.792-3.792Zm0,0" transform="translate(-1289.967 -285.118)"/><path class="c" d="M1394.413,275.309a21.491,21.491,0,1,1-21.684-21.3,21.492,21.492,0,0,1,21.684,21.3Zm0,0" transform="translate(-1276.259 -251.507)"/><path class="d" d="M1391.087,267.063a21.488,21.488,0,0,1-32.5,27.053,21.489,21.489,0,1,0,32.5-27.053Zm0,0" transform="translate(-1280.633 -259.489)"/><path class="e" d="M1405.222,400.3l7.015,5.886a4,4,0,0,1,.494,5.636l-40.808,48.633-13.145-11.031,40.806-48.633a4,4,0,0,1,5.638-.492Zm0,0" transform="translate(-1280.752 -340.402)"/><path class="f" d="M1416.68,409.27,1375.873,457.9l6.5,5.458,40.808-48.633a4,4,0,0,0-.494-5.636l-5.937-4.982c1.379,1.156,1.349,3.467-.074,5.162Zm0,0" transform="translate(-1291.207 -343.302)"/><path class="g" d="M1344.659,528.251c-.082.1-.167.2-.248.294-1.98,2.361-5.688,11.236-8.465,18.307a3.478,3.478,0,0,0,5.051,4.238c6.482-3.962,14.578-9.155,16.559-11.515l.248-.294Zm0,0" transform="translate(-1266.634 -419.224)"/><path class="h" d="M1336.539,554.135c-.2.5-.4,1-.588,1.492a3.477,3.477,0,0,0,5.049,4.238c6.482-3.962,14.579-9.154,16.56-11.515.08-.1.165-.194.248-.294L1351.3,542.6c-.082.1-.166.2-.248.294-1.844,2.2-8.633,7.142-14.517,11.243Zm0,0" transform="translate(-1266.637 -427.998)"/><path class="a" d="M1427.114,431.792l8.079-9.624,13.144,11.034-8.078,9.623Zm0,0" transform="translate(-1322.544 -354.347)"/><path class="b" d="M1444.213,446.145l8.079-9.625,6.5,5.46-8.079,9.623Zm0,0" transform="translate(-1333.002 -363.124)"/><path d="M1226.741,383.518h39.739a2.548,2.548,0,0,0,0-5.1h-39.739a2.548,2.548,0,1,0,0,5.1Zm0,0" transform="translate(-1198.444 -327.592)"/><path d="M1226.741,436.546h39.739a2.548,2.548,0,0,0,0-5.1h-39.739a2.548,2.548,0,1,0,0,5.1Zm0,0" transform="translate(-1198.444 -360.023)"/><path d="M1226.741,489.578h39.739a2.548,2.548,0,0,0,0-5.1h-39.739a2.548,2.548,0,0,0,0,5.1Zm0,0" transform="translate(-1198.444 -392.456)"/><path d="M1399.039,288.185a2.551,2.551,0,0,0-3.536.7l-6.762,10.1-2.968-2.967a2.548,2.548,0,0,0-3.6,3.6l5.161,5.16a2.541,2.541,0,0,0,1.8.747,2.279,2.279,0,0,0,.248-.013,2.543,2.543,0,0,0,1.869-1.116l8.489-12.675a2.551,2.551,0,0,0-.7-3.536Zm0,0" transform="translate(-1294.602 -272.143)"/><path d="M1305.047,612.655h23.493a2.548,2.548,0,0,0,0-5.1h-23.493a2.548,2.548,0,1,0,0,5.1Zm0,0" transform="translate(-1246.333 -467.726)"/><path d="M1163,441.008V369.9a2.548,2.548,0,0,0-5.1,0v71.108" transform="translate(-1157.902 -320.822)"/><path d="M1293.344,315.844a6.56,6.56,0,0,0-2.315-4.444l-7.013-5.885a6.55,6.55,0,0,0-5.812-1.341,6.714,6.714,0,0,0-3.511,2.261c-4.368,5.2-13.243,15.779-17.587,20.958V295.506a24.039,24.039,0,1,0-26.426-26.643h-66.434a6.34,6.34,0,0,0-6.338,6.343v9.446a2.611,2.611,0,0,0,2.016,2.591,2.555,2.555,0,0,0,3.081-2.5v-9.541a1.24,1.24,0,0,1,1.241-1.241h66.389a24.072,24.072,0,0,0,21.374,21.542v37.961l-18.28,21.782c-.657.784-2.664,3.176-8.884,19.01a6.054,6.054,0,0,0,5.6,8.246,6.038,6.038,0,0,0,3.153-.9c14.516-8.875,16.523-11.267,17.184-12.056l1.228-1.463v30.2a1.251,1.251,0,0,1-1.246,1.246H1163V366.317h-5.1v38.318h92.86a6.339,6.339,0,0,0,6.338-6.338v-36.28l8.155-9.718a2.55,2.55,0,0,0-3.906-3.28l-12.594,15.009-9.242-7.751,23.245-27.7,9.238,7.756-3,3.579a2.548,2.548,0,0,0,3.905,3.275l18.932-22.561A6.511,6.511,0,0,0,1293.344,315.844Zm-48.086,51.9a149.5,149.5,0,0,1-14.321,9.509.927.927,0,0,1-1.345-1.128,151.587,151.587,0,0,1,6.877-15.757Zm-9.645-96.14a18.942,18.942,0,1,1,18.942,18.942A18.965,18.965,0,0,1,1235.613,271.6Zm39.664,60.826-9.237-7.756,4.8-5.718,9.242,7.752Zm12.653-15.077-4.576,5.45-9.242-7.752,4.58-5.454a1.42,1.42,0,0,1,.983-.512,1.442,1.442,0,0,1,1.065.335l7.013,5.885a1.453,1.453,0,0,1,.176,2.048Z" transform="translate(-1157.905 -247.564)"/><path d="M1492.649,427.23" transform="translate(-1362.624 -357.442)"/></g><rect class="i" width="166" height="167" transform="translate(447 1828)"/></g></svg>