<svg xmlns="http://www.w3.org/2000/svg" width="166" height="167.478" viewBox="0 0 166 167.478"><defs><style>.a{fill:#95d6a4;}.b{fill:#d6f6b2;}.c{fill:#b3e59f;}.d{fill:#78c2a4;}.e{fill:#f5d800;}.e,.f{isolation:isolate;}.f{fill:#e2c205;}.g{fill:none;}</style></defs><g transform="translate(-1059 -1828)"><g transform="translate(1069.219 1848)"><path class="a" d="M2296.6,335.734a17.906,17.906,0,0,0-16.342-28.306,17.905,17.905,0,0,0-28.3-16.342,17.907,17.907,0,0,0-32.686,0,17.906,17.906,0,0,0-28.306,16.342,17.9,17.9,0,0,0-16.342,28.3c-6.239,2.8-2.915,9.062-2.915,16.344s-3.324,13.544,2.915,16.342a17.905,17.905,0,0,0,16.342,28.306,17.905,17.905,0,0,0,28.3,16.342,17.906,17.906,0,0,0,32.686,0,17.905,17.905,0,0,0,28.3-16.342,17.906,17.906,0,0,0,16.342-28.306c6.241-2.8,1.131-9.06,1.131-16.342s5.11-13.544-1.129-16.342Zm0,0" transform="translate(-2162.846 -278.338)"/><path class="b" d="M2309.778,381.59a52.833,52.833,0,1,1-52.834-52.833,52.833,52.833,0,0,1,52.834,52.833Zm0,0" transform="translate(-2183.205 -307.851)"/><path class="c" d="M2265.35,433.758a52.833,52.833,0,1,1,0-104.335,52.841,52.841,0,0,0,0,104.335Zm0,0" transform="translate(-2183.205 -307.851)"/><path class="d" d="M2191.153,316.931a17.724,17.724,0,0,0,.093,1.82,17.9,17.9,0,0,0-16.343,28.3,17.909,17.909,0,0,0,0,32.687,17.9,17.9,0,0,0,14.522,28.395,17.652,17.652,0,0,0,1.821-.091,17.916,17.916,0,0,0,13.955,19.324,17.9,17.9,0,0,1-21.629-19.324,17.645,17.645,0,0,1-1.82.091,17.9,17.9,0,0,1-14.524-28.395,17.967,17.967,0,0,1-7.633-6.493c-1.867-2.822-.125-6.209-.125-9.851,0-7.282,1.518-13.544,7.758-16.344a17.978,17.978,0,0,1-3.4-10.517,17.906,17.906,0,0,1,19.742-17.786,17.9,17.9,0,0,1,21.629-19.324,17.914,17.914,0,0,0-14.048,17.5Zm0,0" transform="translate(-2155.452 -289.658)"/><path class="e" d="M2297.062,455.387H2155.849V422.7h141.213" transform="translate(-2153.688 -365.306)"/><path class="f" d="M2161.665,455.387h-5.817V422.7h5.817" transform="translate(-2153.688 -365.306)"/><path class="f" d="M2510.241,455.387h-5.817V422.7h5.817" transform="translate(-2366.867 -365.306)"/><path d="M2357.32,544.469a2.159,2.159,0,0,0,2.589,1.622,41.136,41.136,0,0,0,19.89-11.034,2.159,2.159,0,0,0-3.054-3.054,36.835,36.835,0,0,1-17.8,9.877,2.161,2.161,0,0,0-1.622,2.59Zm0,0" transform="translate(-2276.868 -431.763)"/><path d="M2263.978,532a2.162,2.162,0,0,0,0,3.056,41.227,41.227,0,0,0,18.816,10.772,2.184,2.184,0,0,0,.542.069,2.161,2.161,0,0,0,.538-4.254,36.886,36.886,0,0,1-16.84-9.643,2.163,2.163,0,0,0-3.056,0Zm0,0" transform="translate(-2219.43 -431.762)"/><path d="M2152.448,334.493h141.213a2.16,2.16,0,0,0,0-4.321h-5.876a20.059,20.059,0,0,0-17.833-28.395,20.064,20.064,0,0,0-29.731-17.166,20.064,20.064,0,0,0-34.331,0,20.064,20.064,0,0,0-29.731,17.166,20.057,20.057,0,0,0-17.832,28.395h-5.878a2.16,2.16,0,0,0,0,4.321Zm10.488-20.528a15.775,15.775,0,0,1,15.252-7.789,2.163,2.163,0,0,0,2.368-2.369,15.745,15.745,0,0,1,24.892-14.372,2.159,2.159,0,0,0,3.236-.867,15.745,15.745,0,0,1,28.741,0,2.159,2.159,0,0,0,3.236.867,15.745,15.745,0,0,1,24.892,14.372,2.159,2.159,0,0,0,2.369,2.369,15.742,15.742,0,0,1,14.971,24h-7.066a54.87,54.87,0,0,0-17.43-24.428,2.16,2.16,0,1,0-2.7,3.371,50.578,50.578,0,0,1,15.512,21.057h-94.369a50.7,50.7,0,0,1,72.009-25.682,2.161,2.161,0,0,0,2.122-3.764,55.013,55.013,0,0,0-78.74,29.446h-9.013a15.774,15.774,0,0,1-.281-16.207Zm0,0" transform="translate(-2150.287 -274.936)"/><path d="M2293.661,501.29h-87.524a2.16,2.16,0,1,0,0,4.32h65.081a50.7,50.7,0,0,1-94.377,0H2197.5a2.16,2.16,0,1,0,0-4.32h-45.044a2.16,2.16,0,1,0,0,4.32h5.875A20.058,20.058,0,0,0,2176.16,534a20.063,20.063,0,0,0,29.731,17.166,20.063,20.063,0,0,0,34.331,0A20.064,20.064,0,0,0,2269.953,534a20.058,20.058,0,0,0,17.833-28.393h5.875a2.16,2.16,0,1,0,0-4.32Zm-10.487,20.526a15.773,15.773,0,0,1-15.251,7.789,2.163,2.163,0,0,0-2.369,2.369,15.744,15.744,0,0,1-24.89,14.372,2.159,2.159,0,0,0-3.236.867,15.746,15.746,0,0,1-28.743,0,2.159,2.159,0,0,0-3.236-.867,15.745,15.745,0,0,1-24.892-14.372,2.161,2.161,0,0,0-2.369-2.369,15.743,15.743,0,0,1-14.973-23.994h9.013a55.009,55.009,0,0,0,103.6,0h7.07a15.777,15.777,0,0,1,.278,16.205Zm0,0" transform="translate(-2150.29 -413.368)"/><path d="M2283.87,362.066a41.134,41.134,0,0,0-19.89,11.033,2.16,2.16,0,1,0,3.054,3.056,36.823,36.823,0,0,1,17.8-9.879,2.16,2.16,0,1,0-.968-4.21Zm0,0" transform="translate(-2219.431 -328.188)"/><path d="M2360.574,364.418a2.16,2.16,0,0,0,1.534,2.642,36.918,36.918,0,0,1,16.616,9.585,2.161,2.161,0,0,0,3.056-3.056,41.241,41.241,0,0,0-18.564-10.706,2.162,2.162,0,0,0-2.642,1.535Zm0,0" transform="translate(-2278.848 -328.678)"/><path d="M2338.587,349.381a2.16,2.16,0,0,0-2.966.731l-4.784,7.911-1.638-1.836a2.16,2.16,0,1,0-3.222,2.877l3.585,4.018a2.162,2.162,0,0,0,1.611.722c.066,0,.133,0,.2-.009a2.157,2.157,0,0,0,1.648-1.034l6.3-10.413a2.159,2.159,0,0,0-.731-2.966Zm0,0" transform="translate(-2257.398 -320.274)"/><path d="M2338.587,540.921a2.16,2.16,0,0,0-2.966.732l-4.784,7.909-1.638-1.835a2.159,2.159,0,1,0-3.222,2.876l3.585,4.018a2.156,2.156,0,0,0,1.611.722,1.714,1.714,0,0,0,.2-.009,2.155,2.155,0,0,0,1.648-1.032l6.3-10.413a2.16,2.16,0,0,0-.731-2.967Zm0,0" transform="translate(-2257.398 -437.414)"/><path d="M2175.558,440.171a2.515,2.515,0,0,0-2.333-1.563h0a2.516,2.516,0,0,0-2.333,1.568c-.006.017-.013.033-.019.05l-6.01,15.782a2.16,2.16,0,1,0,4.037,1.538l.966-2.54h6.676l.956,2.534a2.161,2.161,0,1,0,4.043-1.526l-5.956-15.783c-.007-.02-.015-.039-.024-.059Zm-4.049,10.514,1.709-4.482,1.69,4.482Zm0,0" transform="translate(-2159.113 -375.033)"/><path d="M2449.042,443.118a2.16,2.16,0,1,0,0-4.32h-6.684a2.16,2.16,0,0,0-2.16,2.16V456.82a2.161,2.161,0,0,0,2.16,2.16h6.684a2.16,2.16,0,1,0,0-4.321h-4.523v-3.611h4.031a2.16,2.16,0,0,0,0-4.32h-4.031v-3.61Zm0,0" transform="translate(-2327.588 -375.149)"/><path d="M2477.8,439.218a2.16,2.16,0,0,0-2.16,2.164l.03,15.538a2.161,2.161,0,0,0,2.161,2.153h.009c.134,0,3.271-.012,4.527-.035,4.79-.084,8.266-4.244,8.266-9.892,0-5.938-3.389-9.927-8.433-9.927Zm8.512,9.927c0,3.8-2.021,5.537-4.022,5.574-.534.009-1.446.017-2.306.022-.006-1.822-.018-9.3-.021-11.2h2.235c3.817,0,4.113,4.291,4.113,5.606Zm0,0" transform="translate(-2349.263 -375.406)"/><path d="M2403.575,440.115l-3.557,10.7-3.734-10.761a2.16,2.16,0,1,0-4.082,1.416l5.479,15.783a2.522,2.522,0,0,0,2.375,1.677h.019a2.529,2.529,0,0,0,2.375-1.724l5.227-15.733a2.16,2.16,0,1,0-4.1-1.362Zm0,0" transform="translate(-2298.162 -375.031)"/><path d="M2312.239,444.929a6.448,6.448,0,0,0-6.556-6.32h-4.253a2.16,2.16,0,0,0-2.16,2.168l-.006,16a2.161,2.161,0,0,0,4.321,0v-4.109l4.873,5.536a2.16,2.16,0,1,0,3.244-2.853l-3.905-4.438a6.355,6.355,0,0,0,4.443-5.983Zm-6.556,2c-.489,0-1.3,0-2.075.008,0-.758-.008-1.536-.008-2.007,0-.4,0-1.2,0-2h2.087a2.012,2.012,0,1,1,0,4Zm0,0" transform="translate(-2241.396 -375.033)"/><path d="M2215.911,456.776a2.161,2.161,0,0,0,4.321,0v-4.8c.852,0,1.76-.009,2.3-.009a6.678,6.678,0,1,0,0-13.355h-4.457a2.161,2.161,0,0,0-2.16,2.168Zm6.618-13.847a2.358,2.358,0,1,1,0,4.714c-.534,0-1.43,0-2.277.007,0-.877-.008-1.815-.008-2.364,0-.467,0-1.436-.006-2.357Zm0,0" transform="translate(-2190.421 -375.033)"/><path d="M2258.05,456.776a2.16,2.16,0,1,0,4.321,0v-4.8c.854,0,1.76-.009,2.3-.009a6.678,6.678,0,1,0,0-13.355h-4.459a2.162,2.162,0,0,0-2.16,2.168Zm6.617-13.847a2.358,2.358,0,1,1,0,4.714c-.534,0-1.43,0-2.278.007,0-.877-.007-1.815-.007-2.364,0-.467,0-1.436-.006-2.357Zm0,0" transform="translate(-2216.192 -375.033)"/><path d="M2337.512,448.772a10.164,10.164,0,1,0,10.164-10.164,10.175,10.175,0,0,0-10.164,10.164Zm16.007,0a5.843,5.843,0,1,1-5.843-5.843,5.85,5.85,0,0,1,5.843,5.843Zm0,0" transform="translate(-2264.788 -375.033)"/></g><rect class="g" width="166" height="167" transform="translate(1059 1828)"/></g></svg>