<svg xmlns="http://www.w3.org/2000/svg" width="166" height="167.13" viewBox="0 0 166 167.13"><defs><style>.a{fill:#eaf6ff;}.b{fill:#d8ecfe;}.c{fill:#f5d800;}.c,.e,.f{isolation:isolate;}.d{fill:#c4e2ff;}.e{fill:#39927e;}.f{fill:#34846f;}.g{fill:#aa6a51;}.h{fill:none;}</style></defs><g transform="translate(-753 -1828)"><g transform="translate(791.815 1853)"><path class="a" d="M1781.049,315.611V297.535h-69.64v18.076c0,17.6,8.775,32.7,21.277,39.149a8.5,8.5,0,0,1,4.595,7.553v.367a8.494,8.494,0,0,1-4.595,7.553c-12.5,6.447-21.277,21.547-21.277,39.15v18.074h69.64V409.383c0-17.6-8.773-32.7-21.277-39.15a8.5,8.5,0,0,1-4.595-7.553v-.367a8.5,8.5,0,0,1,4.595-7.553c12.5-6.447,21.277-21.547,21.277-39.149Zm0,0" transform="translate(-1702 -291.431)"/><path class="b" d="M1816.293,354.759c12.5-6.447,21.277-21.547,21.277-39.149V297.535h-7.87v18.076c0,17.6-8.773,32.7-21.275,39.149a8.5,8.5,0,0,0-4.6,7.553v.367a8.494,8.494,0,0,0,4.6,7.553c12.5,6.447,21.275,21.547,21.275,39.148v18.076h7.87V409.381c0-17.6-8.775-32.7-21.277-39.148a8.5,8.5,0,0,1-4.595-7.553v-.367a8.494,8.494,0,0,1,4.595-7.553Zm0,0" transform="translate(-1758.521 -291.431)"/><path class="c" d="M1762.263,388.775c6.221-.127,12.158-3.268,16.757-8.879a35.457,35.457,0,0,0,7.236-16.006h-47.987A35.472,35.472,0,0,0,1745.5,379.9c4.6,5.611,10.537,8.752,16.759,8.879Zm0,0" transform="translate(-1718.427 -332.012)"/><path class="b" d="M1777.115,312.425V301.678h-65.705V315.6h61.77Zm0,0" transform="translate(-1702 -293.965)"/><rect class="d" width="7.87" height="13.918" transform="translate(71.179 7.713)"/><path class="e" d="M1775.267,296.479V291.8a4.578,4.578,0,0,0-4.538-4.618h-73.641a4.578,4.578,0,0,0-4.538,4.618v4.681a4.578,4.578,0,0,0,4.538,4.618h73.641a4.578,4.578,0,0,0,4.538-4.618Zm0,0" transform="translate(-1690.466 -285.098)"/><path class="f" d="M1885.483,287.18h-7.868a4.578,4.578,0,0,1,4.538,4.618v4.681a4.578,4.578,0,0,1-4.538,4.618h7.868a4.578,4.578,0,0,0,4.538-4.618V291.8a4.577,4.577,0,0,0-4.538-4.618Zm0,0" transform="translate(-1803.647 -285.098)"/><path class="c" d="M1778.694,540.194a26.045,26.045,0,0,0-34.3,0,22.787,22.787,0,0,0-7.942,17.2v8.556h50.187v-8.556a22.786,22.786,0,0,0-7.942-17.2Zm0,0" transform="translate(-1717.313 -435.893)"/><path class="g" d="M1774.026,615.84v-4.681a4.578,4.578,0,0,0-4.538-4.618h-74.43a4.579,4.579,0,0,0-4.538,4.618v4.681a4.579,4.579,0,0,0,4.538,4.618h74.43a4.578,4.578,0,0,0,4.538-4.618Zm0,0" transform="translate(-1689.225 -480.41)"/><path class="g" d="M1776.054,615.84v-4.681a4.578,4.578,0,0,0-4.538-4.618h-74.428a4.578,4.578,0,0,0-4.538,4.618v4.681a4.578,4.578,0,0,0,4.538,4.618h74.428a4.578,4.578,0,0,0,4.538-4.618Zm0,0" transform="translate(-1690.466 -480.41)"/><path class="g" d="M1774.026,615.84v-4.681a4.578,4.578,0,0,0-4.538-4.618h-74.43a4.579,4.579,0,0,0-4.538,4.618v4.681a4.579,4.579,0,0,0,4.538,4.618h74.43a4.578,4.578,0,0,0,4.538-4.618Zm0,0" transform="translate(-1689.225 -480.41)"/><path class="e" d="M1774.026,615.84v-4.681a4.578,4.578,0,0,0-4.538-4.618h-74.43a4.579,4.579,0,0,0-4.538,4.618v4.681a4.579,4.579,0,0,0,4.538,4.618h74.43a4.578,4.578,0,0,0,4.538-4.618Zm0,0" transform="translate(-1689.225 -480.41)"/><path class="f" d="M1885.483,606.54h-7.868a4.579,4.579,0,0,1,4.538,4.618v4.681a4.579,4.579,0,0,1-4.538,4.618h7.868a4.578,4.578,0,0,0,4.538-4.618v-4.681a4.577,4.577,0,0,0-4.538-4.618Zm0,0" transform="translate(-1803.647 -480.41)"/><path d="M1778.137,377.939a37.629,37.629,0,0,0,7.673-16.944,2.085,2.085,0,0,0-2.047-2.464h-48.773a2.086,2.086,0,0,0-2.047,2.464,37.629,37.629,0,0,0,7.673,16.944c5.1,6.221,11.762,9.648,18.761,9.648s13.663-3.427,18.761-9.648Zm-18.761,5.484c-5.729,0-11.247-2.886-15.541-8.124a32.779,32.779,0,0,1-6.252-12.6h43.585a32.779,32.779,0,0,1-6.252,12.6c-4.294,5.238-9.812,8.124-15.541,8.124Zm0,0" transform="translate(-1715.147 -328.734)"/><path d="M1799.856,464.826a2.082,2.082,0,1,0-4.164,0v1.129a2.082,2.082,0,1,0,4.164,0Zm0,0" transform="translate(-1753.545 -392.445)"/><path d="M1799.856,442.844a2.082,2.082,0,1,0-4.164,0v1.129a2.082,2.082,0,1,0,4.164,0Zm0,0" transform="translate(-1753.545 -379.002)"/><path d="M1797.774,506.673a2.1,2.1,0,0,0-2.082,2.119v1.13a2.082,2.082,0,1,0,4.164,0v-1.13a2.1,2.1,0,0,0-2.082-2.119Zm0,0" transform="translate(-1753.545 -419.334)"/><path d="M1799.856,486.807a2.082,2.082,0,1,0-4.164,0v1.131a2.082,2.082,0,1,0,4.164,0Zm0,0" transform="translate(-1753.545 -405.889)"/><path d="M1763.3,315.174a2.083,2.083,0,0,0,4.093.772c1.1-5.844.921-9.745.921-16.044h.667a6.666,6.666,0,0,0,6.659-6.66v-4.761a6.666,6.666,0,0,0-6.659-6.661h-75.137a6.668,6.668,0,0,0-6.661,6.659v4.761a6.669,6.669,0,0,0,6.661,6.661h.667V306c0,17.889,8.794,33.983,22.4,41a6.713,6.713,0,0,1,0,11.772c-13.611,7.018-22.4,23.112-22.4,41v6.1h-.667a6.669,6.669,0,0,0-6.661,6.661v4.76a6.669,6.669,0,0,0,6.661,6.661h3.7a2.082,2.082,0,1,0,0-4.164h-3.7a2.5,2.5,0,0,1-2.5-2.5v-4.76a2.5,2.5,0,0,1,2.5-2.5h75.137a2.5,2.5,0,0,1,2.5,2.5v4.76a2.5,2.5,0,0,1-2.5,2.5h-61.724a2.082,2.082,0,0,0,0,4.164h61.724a6.669,6.669,0,0,0,6.661-6.661v-4.76a6.669,6.669,0,0,0-6.661-6.661h-.667v-6.1c0-17.887-8.794-33.981-22.4-41a6.713,6.713,0,0,1,0-11.772c8.12-4.187,14.739-11.767,18.637-21.348a2.081,2.081,0,1,0-3.856-1.568c-3.525,8.659-9.452,15.483-16.688,19.215a10.875,10.875,0,0,0,0,19.174c12.239,6.311,20.147,20.952,20.147,37.3v6.1h-5.562v-2.55c0-14.4-12.515-25.724-27.176-25.724s-27.176,11.313-27.176,25.724v2.55h-5.562v-6.1c0-16.346,7.909-30.987,20.149-37.3a10.876,10.876,0,0,0,0-19.174c-12.24-6.311-20.149-20.951-20.149-37.3v-6.1h65.476c0,6.312.169,9.871-.85,15.272Zm-54.9,88.145c0-12.171,10.748-21.56,23.012-21.56,12.281,0,23.012,9.407,23.012,21.56v2.55H1708.4Zm-14.557-107.581a2.5,2.5,0,0,1-2.5-2.5v-4.759a2.5,2.5,0,0,1,2.5-2.5h75.137a2.5,2.5,0,0,1,2.5,2.5v4.759a2.5,2.5,0,0,1-2.5,2.5Zm0,0" transform="translate(-1687.185 -281.82)"/></g><rect class="h" width="166" height="167" transform="translate(753 1828)"/></g></svg>