<svg xmlns="http://www.w3.org/2000/svg" width="166" height="167" viewBox="0 0 166 167"><defs><style>.a{fill:#d1e7f8;}.b{fill:#38927e;}.b,.c{isolation:isolate;}.c{fill:#f5d800;}.d{fill:#bcd0df;}.e{fill:#ffdaaa;}.f{fill:none;}</style></defs><g transform="translate(-141 -1828)"><g transform="translate(155.162 1858)"><rect class="a" width="132.169" height="91.151" transform="translate(2.279 20.509)"/><rect class="b" width="45.576" height="13.673" transform="translate(75.2 120.775)"/><rect class="c" width="132.169" height="18.23" transform="translate(2.279 2.279)"/><rect class="b" width="22.788" height="22.788" transform="translate(15.952 34.182)"/><rect class="b" width="22.788" height="22.788" transform="translate(15.952 70.642)"/><path class="d" d="M737.166,495.487h72.921V431.681c0,26.45-41.433,63.806-72.921,63.806Zm0,0" transform="translate(-675.639 -383.827)"/><path class="e" d="M763.408,508.19H799.82l.03-4.1a9.107,9.107,0,0,1,1.529-4.994l1.515-2.279a9.124,9.124,0,0,0,1.531-5.059V473.282a9.115,9.115,0,0,0-8.359-9.086l-18.987-1.581V442.105a4.558,4.558,0,0,0-9.115,0v31.466a2.279,2.279,0,0,1-4.253,1.139l-4.862-8.425a4.557,4.557,0,1,0-7.887,4.557L758.85,492.4l2.452,4.644a18.967,18.967,0,0,1,.912,2.033,18.223,18.223,0,0,1,1.194,6.476Zm0,0" transform="translate(-683.65 -387.415)"/><path d="M578.766,308.493V422.408a.012.012,0,0,0,.012.012h76.874a.012.012,0,0,1,.012.009,15.918,15.918,0,0,1,.581,4.188v.36H651.7a.012.012,0,0,0-.012.012V445.2a.012.012,0,0,0,.012.012h50.109a.012.012,0,0,0,.012-.012V426.99a.012.012,0,0,0-.012-.012h-4.566a.012.012,0,0,1-.012-.012l.014-1.81a6.855,6.855,0,0,1,.6-2.728.012.012,0,0,1,.011-.007h17.627a.012.012,0,0,0,.012-.012V308.493a.012.012,0,0,0-.012-.012h-136.7A.012.012,0,0,0,578.766,308.493ZM697.251,440.65H656.257a.012.012,0,0,1-.012-.012v-9.091a.012.012,0,0,1,.012-.012h40.994a.012.012,0,0,1,.012.012v9.091A.012.012,0,0,1,697.251,440.65ZM660.8,426.978v-.36a20.563,20.563,0,0,0-2.37-9.57l-2.379-4.509v0l-7.834-21.42a2.317,2.317,0,0,0-.158-.341,2.208,2.208,0,0,1-.3-1.441,2.3,2.3,0,0,1,2.852-1.91,2.245,2.245,0,0,1,1.38,1.059l4.866,8.432a4.56,4.56,0,0,0,5.948,1.817,4.649,4.649,0,0,0,2.557-4.211V363.261A2.338,2.338,0,0,1,667.5,360.9a2.279,2.279,0,0,1,2.42,2.274v20.509a2.279,2.279,0,0,0,2.09,2.279l18.987,1.581a6.875,6.875,0,0,1,6.269,6.807v18.476a6.811,6.811,0,0,1-1.139,3.792l-1.516,2.279a11.364,11.364,0,0,0-1.911,6.239l-.023,1.832a.012.012,0,0,1-.012.012Zm50.121-9.115H700.65a.012.012,0,0,1-.01-.017,11.362,11.362,0,0,0,1.181-5.021V394.348A11.462,11.462,0,0,0,691.372,383l-16.886-1.412a.012.012,0,0,1-.011-.012V363.347a6.837,6.837,0,1,0-13.673-.175v31.421a.012.012,0,0,1-.023.006l-4.84-8.393a6.837,6.837,0,0,0-9.3-2.386,6.946,6.946,0,0,0-2.743,8.794l.1.238,7.827,21.391a2.229,2.229,0,0,0,.126.28l1.749,3.323a.012.012,0,0,1-.011.017H583.336a.012.012,0,0,1-.012-.012V331.281a.012.012,0,0,1,.012-.012H710.923a.012.012,0,0,1,.012.012V417.85A.012.012,0,0,1,710.923,417.862ZM583.324,326.7V313.051a.012.012,0,0,1,.012-.012H710.923a.012.012,0,0,1,.012.012V326.7a.012.012,0,0,1-.012.012H583.336A.012.012,0,0,1,583.324,326.7Zm0,.012" transform="translate(-578.766 -308.481)"/><rect width="4.558" height="4.558" rx="2.279" transform="translate(9.115 9.115)"/><rect width="4.558" height="4.558" rx="2.279" transform="translate(18.23 9.115)"/><rect width="4.558" height="4.558" rx="2.279" transform="translate(27.345 9.115)"/><path d="M641.687,399.691l4.939-4.223a1.073,1.073,0,0,0,.118-1.512l-1.568-1.834a1.073,1.073,0,0,0-1.511-.118l-.584.5a1.072,1.072,0,0,1-1.769-.815h0a1.072,1.072,0,0,0-1.073-1.072h-25.2a1.072,1.072,0,0,0-1.072,1.072v25.2a1.072,1.072,0,0,0,1.072,1.072h25.2a1.072,1.072,0,0,0,1.073-1.072V400.507A1.073,1.073,0,0,1,641.687,399.691Zm-23.163,12.639V396.245a1.072,1.072,0,0,1,1.072-1.072h16.086a1.072,1.072,0,0,1,1.072,1.072v1.169a1.074,1.074,0,0,1-.375.815l-7.973,6.828a1.072,1.072,0,0,1-1.451-.052l-3.811-3.767a1.072,1.072,0,0,0-1.518.011l-1.685,1.713a1.072,1.072,0,0,0,.01,1.515l6.8,6.715a1.072,1.072,0,0,0,1.451.052l6.787-5.812a1.072,1.072,0,0,1,1.77.815v6.084a1.072,1.072,0,0,1-1.072,1.072H619.6A1.072,1.072,0,0,1,618.524,412.331Zm0,1.072" transform="translate(-600.293 -358.712)"/><path d="M641.687,493.558l4.939-4.223a1.072,1.072,0,0,0,.118-1.512l-1.568-1.834a1.072,1.072,0,0,0-1.511-.118l-.584.5a1.072,1.072,0,0,1-1.769-.816h0a1.072,1.072,0,0,0-1.073-1.072h-25.2a1.072,1.072,0,0,0-1.072,1.072v25.2a1.072,1.072,0,0,0,1.072,1.072h25.2a1.072,1.072,0,0,0,1.073-1.072V494.373A1.072,1.072,0,0,1,641.687,493.558ZM618.524,506.2V490.111a1.072,1.072,0,0,1,1.072-1.072h16.086a1.072,1.072,0,0,1,1.072,1.072v1.169a1.073,1.073,0,0,1-.375.815l-7.973,6.828a1.072,1.072,0,0,1-1.451-.052l-3.811-3.767a1.073,1.073,0,0,0-1.518.01l-1.685,1.713a1.072,1.072,0,0,0,.01,1.515l6.8,6.715a1.072,1.072,0,0,0,1.451.052l6.787-5.812a1.072,1.072,0,0,1,1.77.815V506.2a1.072,1.072,0,0,1-1.072,1.072H619.6A1.072,1.072,0,0,1,618.524,506.2Zm0,1.072" transform="translate(-600.293 -416.118)"/><rect width="9.115" height="4.558" rx="2.279" transform="translate(68.363 31.903)"/><rect width="41.018" height="4.558" rx="2.279" transform="translate(82.036 31.903)"/><rect width="54.691" height="4.558" rx="2.279" transform="translate(68.363 41.018)"/><rect width="9.115" height="4.558" rx="2.279" transform="translate(68.363 52.412)"/><rect width="22.788" height="4.558" rx="2.279" transform="translate(100.266 52.412)"/><rect width="22.788" height="4.558" rx="2.279" transform="translate(100.266 61.527)"/><rect width="9.115" height="4.558" rx="2.279" transform="translate(68.363 61.527)"/></g><rect class="f" width="166" height="167" transform="translate(141 1828)"/></g></svg>